<?xml version="1.0" encoding="UTF-8" standalone="yes"?>
<!-- Created with Inkscape (http://www.inkscape.org/) -->

<svg width="20mm" height="20mm" viewBox="0 0 65 65" version="1.1" id="svg5" sodipodi:docname="Logo.svg" inkscape:export-filename="Logo.svg"
   xmlns:inkscape="http://www.inkscape.org/namespaces/inkscape"
   xmlns:sodipodi="http://sodipodi.sourceforge.net/DTD/sodipodi-0.dtd"
   xmlns="http://www.w3.org/2000/svg"
   xmlns:svg="http://www.w3.org/2000/svg">
   
   <g id="layer1" transform="translate(-25,-145)">
      <path id="text841" style="fill:#ffffff" 
       d="m 81.464795,150.37118 c -1.157551,0 -2.439129,0.73588 -3.844727,2.20762 l -12.998689,13.59297
        -1.031979,2.57865 6.564457,17.73639 c 0.727604,1.91823 1.537892,3.175 2.43086,3.77031 0.892968,0.61185 
        2.430861,0.91777 4.613672,0.91777 h 8.235156 c 1.471743,0 2.621029,-0.32246 3.447851,-0.96738
         0.826823,-0.62838 1.240235,-1.50482 1.240235,-2.6293 0,-1.6371 -1.165823,-2.45566 -3.497461,-2.45566 
         h -8.036719 c -1.521352,0 -2.513542,-0.61185 -2.976562,-1.83555 L 70.3771,169.04911 82.23374,156.69638 
         c 1.339452,-1.4056 2.00918,-2.59623 2.00918,-3.57188 0,-0.79375 -0.264584,-1.44694 -0.79375,-1.95957 
         -0.529166,-0.52916 -1.190626,-0.79375 -1.984375,-0.79375 z"/>
      <path style="fill:#ffffff" 
      d="m 201.29615,672.02065 -1.95755,4.87305 -14.81315,0.1875 c -18.68748,0 -33.34308,2.96876 -43.96807,8.90625 
      -8.375,4.6875 -14.84361,10.68751 -19.4061,18 -4.5625,7.37499 -6.84463,15.40626 -6.84463,24.09375 0,11.56249 
      3.87458,21.21876 11.62457,28.96875 7.81249,7.74999 17.53188,11.625 29.15687,11.625 12.31249,0 22.59369,-3.93751 
      30.84368,-11.8125 8.24999,-7.81249 16.15608,-21.25002 23.71857,-40.3125 l 6.93812,-17.25 h 18.37376 c 5.4375,0 
      9.68792,-1.15625 12.75041,-3.46875 3.0625,-2.375 4.5949,-5.625 4.5949,-9.75 0,-6.12499 -4.31435,-9.1875 
      -12.93935,-9.1875 h -13.96779 l 1.94976,-4.87305 z m -10.302,27.2793 -5.34286,13.40625 c -4.5,11.24999 
      -9.09526,19.40626 -13.78276,24.46875 -4.62499,5.125 -9.84405,7.6875 -15.65655,7.6875 -4.56249,0 -8.43707,-1.6875 
      -11.62457,-5.0625 -3.1875,-3.375 -4.77994,-7.5 -4.77994,-12.375 0,-5.24999 1.87335,-10.0625 5.62334,-14.4375 
      3.75,-4.3125 8.87608,-7.625 15.37607,-9.9375 6.99999,-2.5 17.06228,-3.75 30.18727,-3.75 z" 
      transform="matrix(0.26530435,0,0,0.26458333,-0.12174446,-0.6292373)" />
      <path
         style="fill:#ffffff"
         d="m 216.49507,569.45709 c -13.81249,0 -25.84501,5.09376 -36.095,15.28125 -10.24999,10.12499 -15.37412,22.03127 
         -15.37412,35.71875 0,9.37499 2.78001,17.37501 8.3425,24 5.625,6.5625 12.40746,9.84375 20.34495,9.84375 4,0 
         7.34376,-1.1875 10.03126,-3.5625 2.6875,-2.375 4.03003,-5.34375 4.03003,-8.90625 0,-3.93749 -2.24919,-6.8125 
         -6.74918,-8.625 -4.25,-1.625 -7.25087,-3.5 -9.00087,-5.625 -1.68749,-2.1875 -2.53021,-5.09375 -2.53021,-8.71875 
         0,-6.68749 2.4681,-12.78125 7.4056,-18.28125 4.99999,-5.49999 10.53096,-8.25 16.59345,-8.25 3.625,0 6.74985,1.09375 
         9.37485,3.28125 2.62499,2.125 3.93848,4.65625 3.93848,7.59375 0,3.4375 -1.8753,9.87501 -5.62529,19.3125 l 
         -21.79023,54.24414 h 26.06179 l 21.69673,-54.24414 c 3.25,-8.18749 4.87539,-15.1875 4.87539,-21 0,-9.18749 
         -3.40576,-16.8125 -10.21825,-22.875 -6.74999,-6.12499 -15.18689,-9.1875 -25.31188,-9.1875 z" 
         transform="matrix(0.26530435,0,0,0.26458333,-0.10781819,-0.60983654)" 
       />
   </g>
</svg>
