<svg xmlns="http://www.w3.org/2000/svg" xmlns:xlink="http://www.w3.org/1999/xlink" version="1.1" width="100" height="100" viewBox="25 26 81 108">
<path transform="matrix(1,0,0,-1,40.0488,69.1805)" d="M0 0 51.81-56.003 51.86-55.956 61.813-46.604 54.987-39.318 66.086-28.882 56.801-18.849 45.704-29.285 9.269 10.099C3.365 17.074-.446 24.729 6.805 35.199L-.377 42.962C-8.938 34.751-14.415 15.584 0 0" fill="#ed0e69"/>
<path transform="matrix(1,0,0,-1,43.1152,117.78639)" d="M0 0-7.721-7.259C.472-15.836 19.411-21.273 34.817-6.79L39.292-2.586 30.006 7.447 24.797 2.551C17.899-3.379 10.333-7.208 0 0" fill="#8dc63f"/>
<path transform="matrix(1,0,0,-1,63.999,52.51979)" d="M0 0-28.222-26.527C-43.752-41.122-39.506-60.748-31.462-69.481L-23.787-62.265C-30.425-51.229-26.076-43.827-19.674-37.252L9.283-10.033Z" fill="#f5843c"/>
</svg>
